<?xml version="1.0" ?><!DOCTYPE svg  PUBLIC '-//W3C//DTD SVG 1.1//EN'  'http://www.w3.org/Graphics/SVG/1.1/DTD/svg11.dtd'><svg enable-background="new 0 0 24 24" height="24px" id="Layer_1" version="1.1" viewBox="0 0 24 24" width="24px" xml:space="preserve" xmlns="http://www.w3.org/2000/svg" xmlns:xlink="http://www.w3.org/1999/xlink"><g id="icon"><circle cx="12" cy="12" fill="#8054A3" r="11"/><path d="M18.1274,16.394l0.1369,-0.9256l-0.4938,-0.0243l-0.5506,-0.0682l0.0048,0.9452l0.4342,0.0377L18.1274,16.394zM10.4602,13.1363c0.0477,0.3287,0.0897,2.2687,-0.0477,2.4161c-0.2758,0.2929,-1.5349,0.2152,-1.8393,0.2366l-0.1045,0.6012c0.5544,0.0167,2.4035,-0.0152,2.9646,-0.0152c1.1059,0,2.9561,-0.0205,3.23,0l0.0766,-0.6447c-0.2796,-0.0472,-1.8049,-0.0057,-2.0158,-0.0539c-0.0468,-0.3054,-0.0978,-2.3479,-0.0515,-2.5592c0.2104,-0.6097,3.4152,-3.0941,3.7668,-3.1895c0.0792,-0.0153,0.1966,-0.042,0.3297,-0.0711h1.0325l0.1613,-0.2381c0.0029,-0.0019,0.0095,-0.0024,0.0119,-0.0024l0.3998,-0.5792c-0.0057,0,-0.0148,-0.0014,-0.0196,-0.0014l0.042,-0.0625h-5.5941l0.2152,0.8836h1.5272l-2.5692,2.3278c-0.5248,-0.7266,-1.7539,-2.241,-2.6112,-3.4939h1.9232v-0.6727l0.0224,-0.1484c-0.0057,-0.0014,-0.0167,-0.0029,-0.0224,-0.0029V7.806H4.91v0.8841h1.8917C7.536,9.266,10.3438,12.7856,10.4602,13.1363zM17.3445,10.7651l0.0234,3.9901l0.8574,0.0687l0.9981,-3.8708C19.0563,10.9473,17.5415,10.8032,17.3445,10.7651z" fill="#FFFFFF"/><path d="M4.2218,19.7782C6.2124,21.7688,8.9624,23,12,23c6.0751,0,11,-4.9249,11,-11c0,-3.0376,-1.2312,-5.7876,-3.2218,-7.7782L4.2218,19.7782z" fill="#231F20" opacity="0.1"/></g></svg>